<?xml version="1.0" standalone="no"?><!DOCTYPE svg PUBLIC "-//W3C//DTD SVG 1.1//EN" "http://www.w3.org/Graphics/SVG/1.1/DTD/svg11.dtd"><svg t="1752757178675" class="icon" viewBox="0 0 1024 1024" version="1.1" xmlns="http://www.w3.org/2000/svg" p-id="13143" xmlns:xlink="http://www.w3.org/1999/xlink" width="200" height="200"><path d="M778.885039 285.429921h148.359055v614.4c0 32.251969-24.188976 56.440945-56.440944 56.440945H275.754331c-32.251969 0-56.440945-24.188976-56.440945-56.440945V156.422047c0-32.251969 24.188976-56.440945 56.440945-56.440945h466.040945v148.359055h37.089763v37.089764z m-56.440945-17.738582V117.719685H275.754331c-20.96378 0-37.089764 16.125984-37.089764 37.089764v745.020472c0 20.96378 16.125984 37.089764 37.089764 37.089764h595.048819c20.96378 0 37.089764-16.125984 37.089763-37.089764V304.781102h-148.359055v-37.089763h-37.089764z m0 0" fill="#728795" opacity=".8" p-id="13144"></path><path d="M751.470866 304.781102h-27.414173V99.981102h19.351181v19.351181h19.351181v19.351182h19.351181v19.351181h19.351181V177.385827h14.513386v19.351181h19.351181v19.351181h19.351181v19.351181h19.351181v19.351181h19.351182V274.141732H912.730709v19.351181h19.351181v19.351181h-209.637796v-27.414173c0 6.450394 12.900787 19.351181 29.026772 19.351181z m0 0" fill="#728795" opacity=".8" p-id="13145"></path><path d="M546.670866 103.206299h74.179528v49.990551h-74.179528V103.206299z m-74.179527 48.377953h74.179527v49.990551h-74.179527V151.584252z m74.179527 49.990551h74.179528v49.990551h-74.179528v-49.990551z m-74.179527 48.377953h74.179527v49.990551h-74.179527v-49.990551z m74.179527 49.990551h74.179528v49.990551h-74.179528v-49.990551z m-74.179527 48.377953h74.179527v49.990551h-74.179527v-49.990551z m74.179527 49.990551h74.179528v49.990551h-74.179528v-49.990551z m-74.179527 49.990551h148.359055v49.990551h-148.359055v-49.990551z m0 48.377953h16.125984v49.990551h-16.125984v-49.990551z m132.23307 0h16.125985v49.990551h-16.125985v-49.990551z m16.125985 87.080315c0 12.900787-11.288189 11.288189-25.801575 11.288189h-96.755906c-14.513386 0-25.801575 1.612598-25.801574-11.288189v-37.089764h148.359055v37.089764z m0 0" fill="#728795" p-id="13146"></path><path d="M103.206299 530.544882h404.762205c20.96378 0 37.089764 11.288189 37.089764 25.801575v258.015748c0 14.513386-16.125984 25.801575-37.089764 25.801575H103.206299c-20.96378 0-37.089764-11.288189-37.089764-25.801575v-258.015748c-1.612598-14.513386 16.125984-25.801575 37.089764-25.801575z m0 0" fill="#728795" p-id="13147"></path><path d="M251.565354 638.588976H182.223622v-32.251968h112.88189V628.913386c-38.702362 45.152756-41.927559 75.792126-45.152756 140.296063h-40.314961c3.225197-53.215748 11.288189-87.080315 41.927559-130.620473zM314.456693 749.858268l51.60315-74.179528h-45.152756V645.03937h95.143307v20.96378L364.447244 740.182677h53.215748v30.63937H316.069291v-20.963779z" fill="#FFFFFF" p-id="13148"></path></svg>