<?xml version="1.0" standalone="no"?><!DOCTYPE svg PUBLIC "-//W3C//DTD SVG 1.1//EN" "http://www.w3.org/Graphics/SVG/1.1/DTD/svg11.dtd"><svg t="1752757257080" class="icon" viewBox="0 0 1024 1024" version="1.1" xmlns="http://www.w3.org/2000/svg" p-id="15604" xmlns:xlink="http://www.w3.org/1999/xlink" width="200" height="200"><path d="M144.161646 894.537143v55.061943h730.855131V74.166857H144.161646V620.251429h344.22784c40.339749 0 73.142857 32.797257 73.142857 73.142857v128c0.117029 40.456777-32.68608 73.142857-73.025829 73.142857H144.155794z m-73.142857 0H70.217143V693.394286c0-3.6864 0.275017-7.296731 0.801646-10.836846V74.172709c0-40.3456 32.797257-73.142857 73.142857-73.142858h730.855131c40.3456 0 73.142857 32.68608 73.142857 73.142858v875.432228c0 40.339749-32.797257 73.142857-73.142857 73.142857H144.161646c-40.3456 0-73.142857-32.803109-73.142857-73.142857v-55.067794z m209.369965-214.05696H158.1056v22.85568h87.537371l-94.395245 119.310628v21.035886h134.623817v-22.861531h-99.649829l94.16704-119.082423v-21.25824z m53.94432 0h-26.741028v163.196343h26.741028v-163.196343z m99.65568 0H366.328686v163.196343h26.741028V781.048686h40.462629c39.77216 0 59.655314-16.910629 59.655314-50.509532 0-33.370697-19.883154-50.058971-59.198903-50.058971z m-40.913188 77.712823V703.341714h38.853485c11.661897 0 20.345417 2.059703 25.828206 6.401463 5.48864 4.113554 8.461166 10.971429 8.461166 20.801829 0 9.8304-2.74432 16.910629-8.227109 21.252388-5.48864 4.119406-14.17216 6.401463-26.062263 6.401463h-38.853485z" fill="#A3BDD3" p-id="15605"></path><path d="M410.068114 110.416457v-36.571428h99.550355v36.571428H410.068114z m0 73.142857v-36.571428h99.550355v36.571428H410.068114z m0.005852 73.142857v-36.571428h99.544503v36.571428H410.068114z m0 73.142858v-36.571429h99.544503v36.571429H410.068114z m0 73.493942v-36.571428h99.5328v36.571428h-99.5328z m100.088685-256.117028v-36.571429h99.538652v36.571429H510.162651z m0 73.142857v-36.571429h99.538652v36.571429H510.162651z m0 73.142857v-36.571428h99.538652v36.571428H510.162651z m0 73.142857v-36.571428h99.538652v36.571428H510.162651z m0.105326 73.493943v-36.571428h99.544503v36.571428H510.267977z" fill="#A3BDD3" p-id="15606"></path><path d="M92.048823 476.516937v-36.571428h801.827108v36.571428z" fill="#A3BDD3" p-id="15607"></path></svg>